<svg width="203" height="54" viewBox="0 0 203 54" fill="none" xmlns="http://www.w3.org/2000/svg">
<g clip-path="url(#clip0_35_87)">
<path d="M33.2076 10.984H19.9724V13.8377H33.2076V10.984Z" fill="white"/>
<path d="M29.1458 12.4084H24.0392V41.6601H29.1458V12.4084Z" fill="white"/>
<path d="M17.1653 33.7108C17.1653 36.2317 19.7772 38.2728 22.9993 38.2728V41.6601C17.3898 41.6601 12.8398 38.1015 12.8398 33.7108C12.8398 29.3202 17.3898 25.7616 22.9993 25.7616V29.1488C19.7772 29.1488 17.1653 31.19 17.1653 33.7157V33.7108Z" fill="white"/>
<path d="M40.3402 33.7108C40.3402 38.1015 35.7902 41.6601 30.1807 41.6601V38.2729C33.4029 38.2729 36.0148 36.2317 36.0148 33.7108C36.0148 31.19 33.4029 29.144 30.1807 29.144V25.7567C35.7902 25.7567 40.3402 29.3153 40.3402 33.706V33.7108Z" fill="white"/>
<g opacity="0.97">
<path d="M14.983 2.84392C15.8715 2.41317 16.5208 2.32017 17.092 2.51107C17.5509 2.6677 17.9903 3.00545 18.2881 3.6173C18.6494 4.36621 18.6348 5.12002 18.3272 5.72209C18.0245 6.31926 17.4777 6.7549 16.7015 7.12691L15.2222 7.84156L15.1343 7.66045C15.6518 7.34718 15.6567 7.28844 15.4029 6.76469L14.1775 4.21447C13.9138 3.66625 13.826 3.67604 13.3085 3.86205L13.2206 3.68094L14.9732 2.83413L14.983 2.84392ZM15.935 6.45632C16.1644 6.93601 16.433 6.97028 16.9065 6.74511C18.044 6.19689 18.2442 5.12981 17.7072 4.01379C17.3703 3.31872 16.8821 2.89776 16.2377 2.83413C15.8569 2.79007 15.4566 2.89776 15.0367 3.09845C14.7535 3.2355 14.6217 3.34809 14.5827 3.4264C14.5436 3.49004 14.5534 3.57325 14.6705 3.82289L15.935 6.45632Z" fill="white"/>
<path d="M21.149 0.558023C22.3158 0.298596 23.5656 0.974085 23.8683 2.34954C24.2002 3.83757 23.4045 4.98786 22.1498 5.26687C20.8365 5.56056 19.6551 4.7627 19.367 3.46067C19.0936 2.22227 19.7039 0.876188 21.149 0.558023ZM21.0709 0.841924C20.3044 1.01324 19.7527 1.82089 20.0407 3.11314C20.3288 4.40048 21.232 5.19345 22.2035 4.97807C23.0286 4.79207 23.5168 4.03337 23.219 2.69707C22.8967 1.2433 21.9692 0.641235 21.0709 0.841924Z" fill="white"/>
<path d="M29.7023 0.244743C29.2532 0.288796 29.1067 0.362219 29.0823 0.685279C29.0726 0.910442 29.0579 1.20903 29.053 1.86983L29.0286 4.71374H28.7601L25.7918 0.974075L25.7772 2.74601C25.7723 3.38234 25.7918 3.7054 25.8016 3.91099C25.8114 4.2732 25.9871 4.38089 26.49 4.42984V4.63053L24.7861 4.61584V4.41516C25.2206 4.38579 25.3915 4.2781 25.4208 3.93057C25.4452 3.7054 25.4598 3.38234 25.4647 2.74112L25.4794 0.930022C25.4794 0.729333 25.4696 0.616751 25.3427 0.460116C25.2109 0.283901 25.0644 0.239848 24.7227 0.200689V0L25.7772 0.0097897L28.7162 3.60261L28.7308 1.86494C28.7357 1.20413 28.7259 0.900653 28.7064 0.685279C28.6869 0.367114 28.5258 0.264322 27.9692 0.225163V0.0293691L29.7023 0.0440537V0.244743Z" fill="white"/>
<path d="M34.8577 3.88652C34.4232 3.84247 34.3842 3.87673 34.2865 4.283L34.1498 4.8606C34.0912 5.10044 34.0473 5.3305 34.0375 5.5263C33.5933 5.5263 33.0025 5.54098 32.4313 5.40882C30.8837 5.04171 30.1758 3.84247 30.5029 2.45722C30.8496 0.998558 32.2263 0.411176 33.5884 0.734236C34.2816 0.900661 34.7601 1.16009 34.9651 1.2433C34.9163 1.50273 34.8528 1.93348 34.804 2.37891L34.5892 2.36912C34.5648 1.74258 34.4281 1.44888 34.0327 1.19925C33.8862 1.10625 33.6177 1.00835 33.4224 0.9594C32.3776 0.709762 31.5331 1.27757 31.2352 2.54044C30.9765 3.63688 31.2743 4.8606 32.5973 5.17876C32.8317 5.2326 33.0514 5.2375 33.2027 5.19834C33.3638 5.14939 33.4712 5.09555 33.5396 4.81165L33.6714 4.24385C33.7934 3.73968 33.7495 3.67115 33.1051 3.46556L33.1539 3.26487L34.9065 3.68094L34.8577 3.88163V3.88652Z" fill="white"/>
<path d="M34.7211 5.99128L34.7992 5.81017C35.3557 5.9717 35.4143 5.96681 35.6487 5.41369L36.7325 2.81453C36.9668 2.25162 36.9277 2.20267 36.42 1.92366L36.4981 1.74255L38.2313 2.46699L38.1531 2.6481C37.5917 2.48168 37.5282 2.48657 37.2939 3.04948L36.2101 5.64865C35.9758 6.21155 36.0197 6.25071 36.5323 6.53461L36.4542 6.71572L34.7211 5.99128Z" fill="white"/>
<path d="M43.416 5.73186C43.0108 5.53117 42.8496 5.51159 42.6544 5.77591C42.5274 5.96192 42.3566 6.20666 42.0002 6.76467L40.477 9.16315L40.2524 9.0212L39.7105 4.27809L38.7585 5.77591C38.4168 6.31435 38.2605 6.59335 38.1629 6.77446C37.9823 7.08773 38.0701 7.27374 38.4753 7.57722L38.3679 7.74364L36.9326 6.82831L37.04 6.66188C37.4257 6.86747 37.6259 6.86747 37.8358 6.58846C37.9774 6.40735 38.158 6.14792 38.5046 5.5997L39.4762 4.07251C39.5836 3.90608 39.6324 3.80329 39.608 3.6026C39.5884 3.38233 39.4908 3.26486 39.2174 3.04948L39.3248 2.88306L40.2133 3.45086L40.8041 8.06181L41.7365 6.59335C42.088 6.03534 42.2443 5.77102 42.337 5.58012C42.4884 5.30111 42.4054 5.12979 41.9562 4.79694L42.0636 4.63052L43.5234 5.56054L43.416 5.72697V5.73186Z" fill="white"/>
<path d="M45.9449 7.85134C46.6332 8.5611 46.9213 9.14848 46.9262 9.75544C46.9213 10.24 46.7406 10.7687 46.2524 11.2386C45.6568 11.8162 44.9392 12.0413 44.2703 11.9385C43.6113 11.8358 43.0254 11.454 42.4249 10.8372L41.2874 9.65754L41.429 9.52049C41.8879 9.91697 41.9416 9.90229 42.3615 9.49601L44.3875 7.52828C44.8269 7.10243 44.7878 7.02411 44.4461 6.58847L44.5877 6.45142L45.94 7.85624L45.9449 7.85134ZM42.8253 9.8925C42.4445 10.2645 42.4933 10.5288 42.8594 10.9057C43.7382 11.8162 44.8074 11.6693 45.7008 10.8078C46.2573 10.2694 46.4965 9.67223 46.355 9.0359C46.2769 8.65899 46.0523 8.31146 45.7252 7.97372C45.5055 7.74855 45.359 7.65555 45.2712 7.64576C45.1979 7.63108 45.1198 7.66534 44.9245 7.85624L42.8301 9.8876L42.8253 9.8925Z" fill="white"/>
<path d="M46.0767 15.409L46.2426 15.3013C46.5356 15.6537 46.6234 15.6635 46.7992 15.4384C46.9847 15.2132 47.2044 14.9048 47.5022 14.5377L46.6869 13.2601C46.3598 13.3385 46.0669 13.3972 45.774 13.4706C45.3053 13.5881 45.3102 13.7007 45.5592 14.2244L45.3932 14.3321L44.5193 12.9665L44.6853 12.8588C44.9733 13.2014 45.071 13.2699 45.7398 13.1329L49.6503 12.3497L49.8065 12.5161C49.0254 13.544 48.1613 14.6748 47.3655 15.7076C46.9701 16.2313 46.9554 16.3145 47.1751 16.7649L47.0091 16.8725L46.0767 15.409ZM48.8741 12.7804C48.2394 12.9175 47.5706 13.0692 46.9847 13.1916L47.6926 14.2979L48.8741 12.7804Z" fill="white"/>
<path d="M52.8578 19.9073C52.6528 19.506 52.5356 19.3885 52.2232 19.4864C52.0084 19.5598 51.7252 19.6528 51.1101 19.8829L48.4542 20.8814L48.3615 20.6318L50.7732 16.5152L49.1182 17.1369C48.5226 17.362 48.2297 17.4942 48.0442 17.5774C47.7122 17.7193 47.6731 17.92 47.8098 18.4095L47.6243 18.478L47.0287 16.8774L47.2142 16.8089C47.3997 17.2054 47.5559 17.3229 47.8928 17.2299C48.1125 17.1711 48.4152 17.0683 49.0206 16.8432L50.7097 16.2068C50.8953 16.1383 50.9978 16.0845 51.1003 15.9131C51.2175 15.7271 51.2077 15.5705 51.1198 15.2377L51.3053 15.1691L51.6715 16.1579L49.3818 20.201L51.0027 19.5892C51.6178 19.3591 51.8961 19.2368 52.0914 19.1437C52.3843 19.0116 52.4185 18.8256 52.2525 18.2871L52.438 18.2186L53.0434 19.8437L52.8578 19.9122V19.9073Z" fill="white"/>
<path d="M51.3102 26.0455C51.1979 25.6196 51.1491 25.6001 50.739 25.6539L50.1483 25.7322C49.9042 25.7665 49.6699 25.8056 49.4892 25.8644C49.333 25.4483 49.1036 24.905 49.0254 24.3176C48.8155 22.7366 49.6748 21.645 51.0857 21.4541C52.5649 21.2534 53.6097 22.3352 53.7952 23.7253C53.888 24.4351 53.8196 24.9784 53.8147 25.1987C53.556 25.2476 53.1361 25.3406 52.7016 25.4532L52.6333 25.2476C53.2045 24.998 53.4339 24.763 53.5218 24.3078C53.556 24.1414 53.5511 23.8477 53.5218 23.647C53.3802 22.5799 52.5503 21.9926 51.2663 22.1639C50.1532 22.3156 49.1182 23.0352 49.2988 24.3861C49.3281 24.6211 49.4062 24.8316 49.499 24.9637C49.6015 25.1008 49.6894 25.1791 49.9774 25.1399L50.5535 25.0616C51.0661 24.9931 51.115 24.9295 51.0759 24.254L51.2809 24.2246L51.5202 26.0161L51.3151 26.0455H51.3102Z" fill="white"/>
<path d="M53.6438 30.6271C53.5803 31.1215 53.4339 31.5082 53.1898 31.7627C52.9506 32.0074 52.5942 32.1543 52.1353 32.0907C51.11 31.9536 50.8122 31.0285 50.8952 30.3677C50.905 30.2894 50.9196 30.2208 50.9343 30.1817L51.1247 29.7167L50.0311 29.5698C49.4404 29.4915 49.4208 29.5404 49.2695 30.1719L49.0742 30.1474L49.3281 28.2237L49.5234 28.2482C49.5087 28.8552 49.5478 28.8894 50.1287 28.9677L52.9164 29.3349C53.5413 29.4181 53.5657 29.3446 53.6926 28.8013L53.8879 28.8258L53.6536 30.6222L53.6438 30.6271ZM51.3688 29.7558C51.3151 29.8341 51.2418 30.0152 51.2126 30.2502C51.1491 30.7152 51.3151 31.3271 52.1987 31.4445C52.9701 31.5473 53.346 31.0872 53.4192 30.4998C53.4436 30.2991 53.429 30.1474 53.3851 30.0985C53.3411 30.0348 53.263 30.0055 53.0726 29.981L51.3688 29.7558Z" fill="white"/>
<path d="M51.4176 38.0917C51.5543 37.5239 51.5397 37.4554 50.9782 37.2596L48.298 36.3296C47.7366 36.1338 47.6975 36.1876 47.4485 36.7114L47.263 36.6477L47.8781 34.8709L48.0637 34.9346C47.9416 35.5072 47.9367 35.566 48.4982 35.7618L49.8358 36.2268L50.6218 33.9556L49.2842 33.4906C48.7276 33.2997 48.6886 33.3437 48.4347 33.8626L48.2492 33.7989L48.8594 32.027L49.0449 32.0906C48.918 32.6487 48.918 32.7172 49.4794 32.913L52.1597 33.843C52.7211 34.0388 52.7748 33.9898 53.014 33.471L53.1996 33.5346L52.5893 35.3066L52.4038 35.2429C52.5405 34.6947 52.5161 34.6115 51.9644 34.4206L50.9001 34.0535L50.1141 36.3247L51.1784 36.6918C51.7349 36.8827 51.8033 36.8289 52.0376 36.3149L52.2232 36.3785L51.608 38.1554L51.4225 38.0917H51.4176Z" fill="white"/>
<path d="M45.7056 39.1686L45.8765 39.2714C45.6861 39.6924 45.7154 39.7756 45.9985 39.8343C46.2817 39.9028 46.6576 39.9665 47.1116 40.079L47.9074 38.7868C47.6975 38.5225 47.5168 38.2875 47.3216 38.0526C47.0091 37.6806 46.9115 37.7344 46.5502 38.1847L46.3793 38.0819L47.2288 36.7016L47.3997 36.8044C47.2142 37.2107 47.1995 37.333 47.6145 37.8764L50.0164 41.0678L49.9335 41.2832C48.6739 41.0237 47.2776 40.735 46.0083 40.4657C45.3687 40.3336 45.2858 40.3581 44.9782 40.7545L44.8073 40.6517L45.7154 39.1735L45.7056 39.1686ZM49.2841 40.5538C48.8838 40.0448 48.4591 39.5015 48.0929 39.0267L47.4046 40.1427L49.2793 40.5489L49.2841 40.5538Z" fill="white"/>
<path d="M41.883 43.7208C41.9465 43.6523 42.0002 43.5985 42.0685 43.5397C42.4395 43.1824 42.7227 43.0747 43.2548 43.1383C43.6942 43.1922 44.1971 43.3048 44.6121 43.3831C44.8757 43.432 44.9684 43.3929 45.2077 43.1285L45.3737 42.9474L44.5535 42.1985C44.1092 41.7923 44.0311 41.8265 43.6112 42.1985L43.4648 42.0664L44.7243 40.6811L44.8708 40.8133C44.5242 41.2881 44.5144 41.3419 44.9587 41.7482L47.0482 43.6523C47.4925 44.0586 47.5608 44.0145 47.9807 43.6523L48.1271 43.7845L46.9261 45.111C46.5844 45.4879 46.3061 45.7032 45.9937 45.7816C45.6666 45.8697 45.3004 45.7962 44.9831 45.5026C44.5339 45.0914 44.5095 44.5481 44.6902 44.0096C44.4412 43.9558 43.8895 43.8579 43.5136 43.7991C43.0596 43.7355 42.8399 43.7159 42.6007 43.7159C42.3224 43.7159 42.1564 43.7845 42.0148 43.8775L41.8879 43.7208H41.883ZM45.32 43.3586C45.0758 43.6278 44.9587 43.8383 44.9538 44.0684C44.9196 44.411 45.0563 44.6851 45.3395 44.9396C45.9009 45.4487 46.4379 45.2676 46.7992 44.8711C46.9359 44.7194 46.9945 44.6117 46.9945 44.5481C46.9994 44.4697 46.9603 44.4061 46.8236 44.2788L45.5396 43.109L45.3151 43.3586H45.32Z" fill="white"/>
<path d="M38.695 46.0606L38.8073 46.2221C38.363 46.5941 38.3728 46.643 38.8073 47.2647L40.433 49.6583C40.1743 48.2583 39.7983 46.0606 39.647 45.4095L39.7983 45.3068C40.3598 45.7032 42.1124 46.8682 43.2744 47.6269C41.9757 45.5074 41.6633 45.0424 41.5901 44.9299C41.3606 44.6068 41.1848 44.6606 40.765 44.8858L40.6527 44.7243L42.0246 43.7845L42.1368 43.946C41.8244 44.2103 41.7365 44.3767 41.9025 44.7243C42.0441 45.0082 42.1808 45.2186 43.4892 47.4605C43.6747 47.7835 43.8016 47.8423 44.3386 47.5388L44.4509 47.7052L43.4452 48.3954L40.1401 46.3004L40.7943 50.2114L39.7837 50.9065L39.6714 50.74C40.1303 50.3387 40.1547 50.2457 39.8667 49.8443L38.3093 47.6122C37.8602 47.0004 37.8211 46.9857 37.2743 47.2794L37.162 47.1179L38.6999 46.0655L38.695 46.0606Z" fill="white"/>
<path d="M34.4135 48.0919L34.4818 48.2779C34.0766 48.4933 34.0473 48.5814 34.2377 48.7968C34.4184 49.0219 34.6771 49.3059 34.9749 49.6681L36.3907 49.1296C36.381 48.7919 36.381 48.4933 36.3712 48.1898C36.3517 47.7052 36.2394 47.6857 35.6779 47.8227L35.6096 47.6367L37.123 47.0591L37.1914 47.2451C36.8008 47.4556 36.7129 47.5437 36.7081 48.2241L36.6739 52.2232L36.4786 52.3407C35.6389 51.3617 34.7113 50.2848 33.8618 49.2912C33.4322 48.7919 33.3541 48.7625 32.8708 48.8898L32.8024 48.7038L34.4184 48.087L34.4135 48.0919ZM36.4054 51.3764C36.4005 50.7254 36.3907 50.0401 36.3907 49.438L35.1653 49.903L36.4054 51.3715V51.3764Z" fill="white"/>
<path d="M28.8089 50.5149C28.848 50.1624 28.9456 49.6289 29.0091 49.3939C29.2043 49.3156 29.7218 49.1002 30.2442 49.0121C31.8943 48.7331 32.9245 49.7023 33.1295 50.926C33.3687 52.3553 32.4655 53.5203 30.9179 53.7797C30.3223 53.8776 29.8195 53.8336 29.5851 53.8385C29.507 53.5301 29.385 53.1189 29.2727 52.7763L29.4777 52.6931C29.6925 53.1385 29.9074 53.3979 30.2833 53.486C30.4786 53.5399 30.7666 53.5399 31.0302 53.4958C32.1677 53.3049 32.6267 52.3504 32.4363 51.1952C32.2117 49.8443 31.372 49.0953 30.254 49.2813C29.551 49.3988 29.258 49.7855 29.0237 50.5442L28.804 50.51L28.8089 50.5149Z" fill="white"/>
<path d="M24.4834 50.4268C24.5322 50.2457 24.7373 49.5163 24.8154 49.3058L28.2182 49.394V49.5946C27.5591 49.6289 27.5103 49.6876 27.4956 50.2701L27.4224 53.07C27.4077 53.7014 27.481 53.7406 28.0082 53.7993V54L25.8601 53.9462C25.2011 53.9266 24.9277 53.9266 24.8447 53.9315C24.8447 53.7553 24.83 53.2217 24.8105 52.8448L25.0204 52.8155C25.079 53.0602 25.1425 53.207 25.2157 53.3588C25.3231 53.5937 25.4793 53.6476 25.8992 53.6623L26.5631 53.6818C26.778 53.6867 26.7975 53.6672 26.8024 53.4616L26.8414 51.8952L26.0652 51.8756C25.5379 51.861 25.5037 51.9686 25.4061 52.4483H25.1913L25.2303 50.9799H25.4452C25.5233 51.4987 25.577 51.5722 26.0798 51.5819L26.8512 51.6015L26.8902 50.1918C26.9049 49.6974 26.7487 49.6485 26.402 49.6338L25.7527 49.6142C25.3231 49.6044 25.2548 49.6632 25.0937 49.8443C24.957 49.9911 24.8007 50.275 24.6982 50.4855L24.4883 50.4219L24.4834 50.4268Z" fill="white"/>
<path d="M18.5908 52.5413C19.0302 52.6099 19.2108 52.5413 19.2938 52.2232C19.3378 52.0665 19.4159 51.7777 19.5623 51.1414L19.7332 50.3925C19.8943 49.6876 20.0994 49.1639 20.5924 48.8359C20.9879 48.5716 21.481 48.5716 21.9497 48.6793C22.3451 48.7674 22.7503 48.9485 22.9993 49.252C23.3362 49.6632 23.4289 50.1869 23.2434 50.9946L22.8431 52.7567C22.7015 53.3783 22.7454 53.4322 23.2825 53.6084L23.2385 53.8042L21.4419 53.393L21.4859 53.1972C22.0424 53.2853 22.1059 53.2462 22.2475 52.6196L22.638 50.8918C22.8675 49.8834 22.5209 49.2226 21.7007 49.0317C20.7291 48.8115 20.2849 49.3499 20.0261 50.5002L19.865 51.205C19.7186 51.8414 19.6795 52.1106 19.6551 52.2966C19.6063 52.6147 19.7332 52.7665 20.2361 52.9084L20.1921 53.1042L18.5518 52.7322L18.5957 52.5364L18.5908 52.5413Z" fill="white"/>
<path d="M14.4606 49.6778C14.4215 49.9079 14.3971 50.1575 14.4166 50.3044C14.4362 50.5246 14.4801 50.5981 14.8316 50.7645L15.4663 51.0631L16.9211 47.9304C17.1555 47.4311 17.1359 47.3332 16.5501 47.015L16.6331 46.8339L18.4785 47.6954L18.3955 47.8765C17.7853 47.6367 17.7071 47.6807 17.4728 48.1898L16.018 51.3225L16.594 51.5917C16.9407 51.7532 17.0627 51.763 17.258 51.6211C17.3947 51.5281 17.5167 51.3959 17.7071 51.2001L17.8975 51.2882C17.6778 51.6602 17.4484 52.0518 17.2629 52.3994L17.1164 52.3308C17.092 52.1302 17.0188 52.1057 16.843 52.0225L14.3288 50.8477C14.153 50.7645 14.0896 50.7645 13.9382 50.8477L13.7869 50.7743C13.9284 50.4708 14.1188 49.996 14.2604 49.6093L14.4606 49.6778Z" fill="white"/>
<path d="M15.4273 46.1487L15.315 46.3151C14.8024 46.0508 14.7389 46.041 14.4069 46.5451L12.8495 48.8898C12.5127 49.3988 12.542 49.4527 12.9862 49.8247L12.874 49.9911L11.3117 48.9485L11.424 48.7821C11.9415 49.0513 12.005 49.0611 12.3418 48.552L13.8992 46.2074C14.236 45.6983 14.2019 45.6494 13.7527 45.2725L13.865 45.106L15.4273 46.1487Z" fill="white"/>
<path d="M9.56881 42.8593C9.8715 42.6782 10.3499 42.4237 10.5745 42.3307C10.7503 42.4384 11.2385 42.7125 11.6339 43.0747C12.8642 44.2103 12.7324 45.62 11.8927 46.5354C10.9163 47.6024 9.44188 47.5975 8.28484 46.5354C7.84057 46.1242 7.56718 45.6983 7.42072 45.5172C7.616 45.2627 7.86498 44.9152 8.06514 44.6166L8.26043 44.7292C8.04073 45.1746 7.9675 45.5026 8.13349 45.855C8.21161 46.041 8.38736 46.271 8.58264 46.4522C9.43211 47.2353 10.4671 47.0151 11.258 46.1536C12.1807 45.1452 12.2637 44.0243 11.4289 43.2509C10.9016 42.7663 10.4183 42.7712 9.67622 43.0551L9.56881 42.8593Z" fill="white"/>
<path d="M8.5045 39.5308L8.34339 39.6483C8.03094 39.3106 7.94306 39.3057 7.78196 39.5406C7.61108 39.7756 7.40604 40.0986 7.12776 40.4755L8.00653 41.709C8.32874 41.616 8.61678 41.5377 8.90971 41.4496C9.3735 41.3077 9.36374 41.1951 9.08546 40.686L9.24657 40.5685L10.1888 41.8901L10.0277 42.0076C9.72501 41.6797 9.6176 41.616 8.95853 41.7873L5.09195 42.7712L4.92596 42.6146C5.65339 41.5475 6.46381 40.3727 7.20099 39.3008C7.57203 38.7574 7.58179 38.6742 7.33769 38.2337L7.4988 38.1162L8.5045 39.5259V39.5308ZM5.83891 42.3013C6.46381 42.13 7.12776 41.9489 7.70384 41.7922L6.94225 40.7252L5.83891 42.3013Z" fill="white"/>
<path d="M4.94548 35.331C5.16029 35.2772 5.91701 35.1548 6.14646 35.1205L7.53296 38.077L7.35232 38.1602C7.02523 37.6071 6.96664 37.5729 6.42474 37.8274L3.8812 39.0266C3.33441 39.2812 3.33441 39.3644 3.51993 39.893L3.33929 39.9762L2.54352 38.2728L2.72415 38.1896C3.01219 38.6742 3.07078 38.7329 3.62245 38.4735L6.22946 37.2449C6.62002 37.0589 6.68349 36.9659 6.52238 36.6037C6.52238 36.5988 6.31245 36.1338 6.29292 36.0995C6.14158 35.7765 6.05858 35.6981 5.82913 35.6247C5.58991 35.5464 5.26769 35.5317 4.98942 35.5464L4.95036 35.3261L4.94548 35.331Z" fill="white"/>
<path d="M3.55412 29.1684C3.90563 29.2027 4.43777 29.2908 4.67211 29.3544C4.75022 29.5453 4.97479 30.0642 5.06755 30.5879C5.37024 32.2375 4.41824 33.285 3.19773 33.5102C1.77706 33.7696 0.600488 32.8787 0.31733 31.332C0.209925 30.7397 0.2441 30.2306 0.239218 29.9957C0.546786 29.9124 0.956877 29.7852 1.29374 29.6677L1.38161 29.8733C0.942231 30.0984 0.683483 30.3138 0.60537 30.6956C0.55655 30.8914 0.55655 31.1802 0.60537 31.4445C0.815298 32.585 1.77218 33.0305 2.91946 32.82C4.26202 32.5752 4.9992 31.7235 4.79416 30.6026C4.66723 29.8978 4.27666 29.6139 3.51506 29.3887L3.54924 29.1684H3.55412Z" fill="white"/>
<path d="M0 25.977C0.0439383 24.7777 1.0057 23.7351 2.41661 23.789C3.93492 23.8428 4.84786 24.9001 4.80393 26.1924C4.7551 27.5384 3.69082 28.4831 2.35802 28.4391C1.09358 28.395 -0.0488204 27.4601 0.00488204 25.9819L0 25.977ZM0.258748 26.1287C0.229456 26.9168 0.869003 27.6559 2.19203 27.7C3.5053 27.7489 4.50124 27.0636 4.53541 26.07C4.56471 25.2232 3.94957 24.5624 2.58748 24.5134C1.10334 24.4596 0.28804 25.2134 0.258748 26.1287Z" fill="white"/>
<path d="M5.10664 23.1869C5.0627 23.4365 4.85277 23.5785 4.58914 23.5344C4.34016 23.4904 4.17417 23.2848 4.21811 23.0352C4.26205 22.7855 4.48662 22.6338 4.74049 22.6778C5.00412 22.7219 5.15546 22.9422 5.11152 23.1918L5.10664 23.1869Z" fill="white"/>
<path d="M4.9992 18.5123C5.19936 18.6151 5.84379 19.0263 6.03419 19.1584L5.11149 22.2912L4.92109 22.2324C5.04314 21.601 5.02361 21.5373 4.44753 21.366L1.75264 20.5633C1.17656 20.392 1.12286 20.4507 0.908051 20.9695L0.717651 20.9108L1.24979 19.1046L1.44019 19.1633C1.33767 19.7165 1.34255 19.7997 1.92351 19.9759L4.68675 20.7982C5.10172 20.9206 5.20913 20.8961 5.33118 20.5143C5.33118 20.5094 5.48252 20.0248 5.49717 19.9857C5.59969 19.643 5.58504 19.5305 5.46299 19.3249C5.33606 19.1046 5.1066 18.8794 4.88691 18.7081L5.00408 18.5172L4.9992 18.5123Z" fill="white"/>
<path d="M7.47928 16.1188L7.30352 16.0258C7.46463 15.595 7.43046 15.5118 7.14242 15.4726C6.85438 15.4237 6.47846 15.3845 6.01467 15.3062L5.31165 16.6474C5.54111 16.897 5.73639 17.1173 5.94632 17.3376C6.28318 17.69 6.37594 17.6264 6.70792 17.1516L6.88367 17.2446L6.13184 18.6788L5.95608 18.5858C6.11231 18.1697 6.11719 18.0473 5.66804 17.5285L3.05615 14.5084L3.1245 14.2881C4.39871 14.4594 5.80962 14.6552 7.09848 14.8363C7.74779 14.9244 7.8259 14.895 8.10906 14.479L8.28481 14.572L7.47928 16.109V16.1188ZM3.81775 14.9832C4.25225 15.4677 4.71116 15.9768 5.10661 16.4222L5.71686 15.2573L3.81775 14.9783V14.9832Z" fill="white"/>
<path d="M6.0147 10.0883C6.64448 9.32468 7.19615 8.97225 7.79176 8.90372C8.2702 8.85478 8.8121 8.97715 9.33936 9.41279C9.97891 9.94143 10.2816 10.6316 10.2523 11.312C10.223 11.9826 9.91056 12.6042 9.35889 13.2699L8.31414 14.5377L8.16279 14.4104C8.50453 13.9112 8.48501 13.8573 8.03586 13.4853L5.86335 11.6791C5.39468 11.2875 5.32145 11.3365 4.926 11.7232L4.77466 11.5959L6.0147 10.0932V10.0883ZM8.38248 12.9762C8.79257 13.314 9.04644 13.2357 9.3833 12.8294C10.1888 11.8553 9.92521 10.8029 8.97321 10.01C8.3776 9.51558 7.76247 9.33937 7.14733 9.54984C6.78606 9.66732 6.46384 9.93164 6.16604 10.2939C5.96588 10.5386 5.89265 10.6952 5.88776 10.7833C5.878 10.8568 5.92194 10.9302 6.13675 11.1064L8.38248 12.9713V12.9762Z" fill="white"/>
<path d="M11.9171 10.6414C11.7315 10.8127 11.4777 10.7981 11.297 10.5974C11.1262 10.4114 11.1164 10.147 11.3019 9.97082C11.4874 9.7995 11.7608 9.81419 11.9317 10.0051C12.1123 10.2009 12.1026 10.4652 11.9171 10.6365V10.6414Z" fill="white"/>
</g>
<g opacity="0.89">
<path d="M83.4535 18.1648V21.0283H64.5063V18.1648H72.4592V16.4761H67.1426V9.10931H81.0613V11.7036H70.4771V14.1265H81.0613V16.4761H75.696V18.1648H83.4535ZM78.2835 22.4478C80.29 22.4478 81.8376 23.4512 81.8376 25.3113V26.9755C81.8376 28.5663 80.412 29.6922 78.6252 29.6922H69.7301C68.1581 29.6922 66.5177 28.6153 66.5177 26.951V25.3113C66.5177 23.3533 68.6707 22.4478 70.2379 22.4478H78.2835ZM71.058 25.14C70.0914 25.14 69.7301 25.605 69.7301 25.9721V26.3881C69.7301 27.1468 70.2134 27.2447 71.058 27.2447H77.7513C78.3567 27.2447 78.8888 27.0245 78.8888 26.5105V26.07C78.8888 25.556 78.4299 25.14 77.7757 25.14H71.058Z" fill="white"/>
<path d="M95.683 13.0007V16.525C95.683 18.483 94.1354 20.0738 92.2998 20.0738H89.0142C87.1785 20.0738 85.5089 18.483 85.5089 16.525V13.0007C85.5089 11.0183 87.1785 9.47643 89.0142 9.47643H92.2998C94.1354 9.47643 95.683 11.0183 95.683 13.0007ZM87.6814 29.4229V22.4478H90.9914V26.4371H101.917V29.4229H87.6814ZM92.6855 13.686C92.6855 12.8294 92.0557 12.1931 91.2111 12.1931H90.0736C89.229 12.1931 88.5015 12.8294 88.5015 13.686V15.8153C88.5015 16.6963 89.2241 17.3327 90.0736 17.3327H91.2111C92.0557 17.3327 92.6855 16.6963 92.6855 15.8153V13.686ZM101.917 22.1541H98.705V9.06036H101.917V22.1541Z" fill="white"/>
<path d="M115.738 13.172H108.127V17.6998H115.738V20.2696H105.057V10.3086H115.738V13.172ZM118.033 22.6925C119.747 22.6925 121.128 23.5491 121.128 25.3357V27.0979C121.128 28.4684 119.966 29.6922 118.497 29.6922H108.977C107.429 29.6922 106.316 28.6398 106.316 26.9755V25.2379C106.316 23.3778 107.644 22.6925 109.699 22.6925H118.038H118.033ZM118.277 26.07C118.277 25.6784 117.891 25.3113 117.432 25.3113H110.451C109.509 25.3113 109.436 25.7273 109.436 26.0455V26.6574C109.436 27.1468 109.797 27.3182 110.451 27.3182H117.462C118.018 27.3182 118.282 27.0734 118.282 26.5839V26.07H118.277ZM123.691 13.4902V16.3782H120.962V21.1506H118.087V9.06036H120.962V13.4902H123.691Z" fill="white"/>
<path d="M132.484 13.5392C132.386 14.9831 132.196 21.3464 136.228 22.717V25.5805C135.457 25.4336 134.73 25.1644 134.031 24.7728C132.845 24.112 131.468 23.0107 130.77 21.0527C130.189 22.8883 128.861 23.9897 127.699 24.6749C126.996 25.091 126.274 25.3847 125.503 25.5805V22.717C129.516 21.322 129.174 14.9831 129.081 13.5392H125.263V10.9204H136.526V13.5392H132.489H132.484ZM137.659 9.06036H140.608V29.6677H137.659V19.4864H134.93V16.0111H137.659V9.06036ZM144.933 9.06036V29.6677H142.033V9.06036H144.933Z" fill="white"/>
<path d="M154.16 10.0638C155.923 10.0638 157.397 11.5567 157.397 13.4168V16.7942C157.397 18.6787 155.923 20.1717 154.16 20.1717H151.045C149.307 20.1717 147.711 18.6787 147.711 16.7942V13.4168C147.711 11.5567 149.307 10.0638 151.045 10.0638H154.16ZM163.612 22.3499V25.1644C163.587 26.4126 163.348 27.4895 163.08 28.3461C162.933 28.8356 162.767 29.2761 162.596 29.6922H159.599C160.155 28.5908 160.419 27.465 160.541 26.6084C160.614 26.0944 160.639 25.6294 160.639 25.1644H149.307V22.3499H163.612ZM154.551 14.1021C154.551 13.2455 153.97 12.6581 153.125 12.6581H152.085C151.241 12.6581 150.538 13.2455 150.538 14.1021V16.1334C150.538 16.9411 151.241 17.5774 152.085 17.5774H153.125C153.97 17.5774 154.551 16.9411 154.551 16.1334V14.1021ZM163.348 14.2489V15.8642H165.496V18.3361H163.348V21.1262H160.448V9.08484H163.348V11.7281H165.525V14.2489H163.348Z" fill="white"/>
<path d="M171.296 30.9404C168.567 28.1013 167.815 24.9442 167.815 21.1507C167.815 18.018 169.021 13.0497 171.535 10.3086H173.854C172.019 13.7105 171.174 17.3082 171.174 21.1017C171.174 24.8952 172.019 27.6853 173.688 30.9404H171.296Z" fill="white"/>
<path d="M194.666 22.766H186.836V29.6188H183.55V22.766H176.154V19.7312H194.666V22.766ZM177.775 9.47644H193.143V12.0707H187.441C188.481 14.0776 191.044 15.4971 192.831 16.1334V18.3851C189.374 17.9445 186.596 15.8887 185.366 13.9063C184.253 16.2069 180.196 18.1403 177.853 18.7277V16.2313C180.801 15.0566 182.686 13.1231 183.145 12.0707H177.779V9.47644H177.775Z" fill="white"/>
<path d="M197.127 30.9404C198.748 27.6608 199.641 24.8218 199.641 21.1017C199.641 17.3816 198.797 13.7105 196.961 10.3086H199.28C201.794 13.0497 203 18.018 203 21.1507C203 24.8952 202.229 28.1503 199.519 30.9404H197.127Z" fill="white"/>
</g>
<g opacity="0.89">
<path d="M65.1069 40.4755H67.7334C68.7001 40.4755 69.9694 40.872 69.945 42.5656L69.9352 44.69C69.9352 46.2417 68.6366 46.8927 67.5869 46.8927H65.1069V40.4755ZM68.8416 42.8887C68.8416 42.0859 68.4999 41.7335 67.5381 41.7335H66.5129V45.4976H67.6162C68.2411 45.4976 68.8416 45.2774 68.8416 44.4844V42.8887Z" fill="white"/>
<path d="M72.6789 46.8878C71.9026 46.8878 70.7749 46.4472 70.7749 45.1354V42.3747C70.7749 41.2195 71.722 40.4608 72.8351 40.4608H73.7236C74.8709 40.4608 75.7058 41.2195 75.7058 42.3649V45.1599C75.7058 46.1976 74.7391 46.8878 73.9678 46.8878H72.6789ZM73.4942 45.8305C74.0507 45.8305 74.4169 45.5221 74.4169 44.9592V42.4628C74.4169 42.0125 74.1191 41.6356 73.504 41.6356H73.0158C72.3909 41.6356 72.0589 42.0321 72.0589 42.4726V44.9592C72.0589 45.4438 72.2932 45.8305 72.9474 45.8305H73.4942Z" fill="white"/>
<path d="M78.1517 46.8878H76.6089V40.4608H78.1517L80.456 44.9103V40.4608H81.7253V46.8878H80.3876L78.1517 42.8691V46.8878Z" fill="white"/>
<path d="M87.5447 43.481V44.9103C87.5447 46.178 87.0125 46.8144 85.9287 46.9123C85.5089 46.9563 85.1086 46.9367 84.5813 46.9123C83.6439 46.8878 82.6334 46.3053 82.6334 44.9396V42.4971C82.6334 41.3713 83.4487 40.4804 84.8108 40.4804H85.4308C86.5683 40.4804 87.1981 41.0776 87.4763 41.9146L86.2412 42.2915C86.0996 41.9734 85.9434 41.7286 85.4405 41.7286H84.9084C84.2835 41.7286 83.9613 42.1251 83.9613 42.5901V44.8026C83.9613 45.4732 84.2737 45.806 84.8303 45.806H85.421C86.2314 45.806 86.3144 45.3019 86.3144 44.6264L86.3047 44.2299H85.2794V43.481H87.5496H87.5447Z" fill="white"/>
<path d="M89.6781 46.8878H88.4088V40.4706H89.6781V46.8878Z" fill="white"/>
<path d="M92.207 46.8878H90.6643V40.4608H92.207L94.5113 44.9103V40.4608H95.7807V46.8878H94.443L92.207 42.8691V46.8878Z" fill="white"/>
<path d="M96.7767 40.4755H99.4032C100.37 40.4755 101.639 40.872 101.615 42.5656L101.605 44.69C101.605 46.2417 100.306 46.8927 99.2567 46.8927H96.7767V40.4755ZM100.507 42.8887C100.507 42.0859 100.17 41.7335 99.203 41.7335H98.1778V45.4976H99.2812C99.9061 45.4976 100.507 45.2774 100.507 44.4844V42.8887Z" fill="white"/>
<path d="M103.406 46.8878H102.005L104.266 40.4608H105.491L107.737 46.8878H106.58L106.189 45.5564H103.841L103.406 46.8878ZM104.188 44.8026H105.813L105.022 42.081H105.003L104.188 44.8026Z" fill="white"/>
<path d="M109.924 46.8878H108.381V40.4608H109.924L112.228 44.9103V40.4608H113.498V46.8878H112.16L109.924 42.8691V46.8878Z" fill="white"/>
<path d="M119.317 43.481V44.9103C119.317 46.178 118.785 46.8144 117.701 46.9123C117.281 46.9563 116.881 46.9367 116.354 46.9123C115.416 46.8878 114.406 46.3053 114.406 44.9396V42.4971C114.406 41.3713 115.221 40.4804 116.583 40.4804H117.203C118.341 40.4804 118.97 41.0776 119.249 41.9146L118.014 42.2915C117.872 41.9734 117.716 41.7286 117.213 41.7286H116.681C116.056 41.7286 115.734 42.1251 115.734 42.5901V44.8026C115.734 45.4732 116.046 45.806 116.603 45.806H117.193C118.004 45.806 118.087 45.3019 118.087 44.6264L118.077 44.2299H117.052V43.481H119.322H119.317Z" fill="white"/>
<path d="M125.669 44.5285H124.433V46.8927H123.052V40.4608H125.664C126.489 40.4608 127.909 40.6713 127.909 42.6635C127.909 44.0488 126.977 44.504 125.673 44.5334L125.669 44.5285ZM125.537 43.7012C126.225 43.7012 126.616 43.3831 126.616 42.6782C126.616 41.9734 126.318 41.6405 125.615 41.6307H124.433V43.7012H125.537Z" fill="white"/>
<path d="M130.165 43.9998V46.8927H128.632V40.4657H130.165V43.0208H132.391V40.4657H133.573V46.8927H132.391V43.9998H130.165Z" fill="white"/>
<path d="M135.618 46.8878H134.217L136.477 40.4608H137.703L139.948 46.8878H138.791L138.401 45.5564H136.053L135.618 46.8878ZM136.404 44.8026H138.03L137.239 42.081H137.219L136.404 44.8026Z" fill="white"/>
<path d="M145.514 46.8878H144.025C144.191 46.5696 144.201 46.3347 144.201 45.6739C144.201 44.8026 144.054 44.3767 143.088 44.3767H142.106V46.8878H140.603V40.4706H143.62C145.299 40.4706 145.558 41.7286 145.558 42.2866C145.558 42.9915 145.255 43.5887 144.626 43.804C145.148 44.0439 145.514 44.2348 145.514 45.434V46.8878ZM143.268 43.295C143.957 43.295 144.284 43.0551 144.284 42.4237C144.284 42.0957 144.137 41.5867 143.361 41.5867H142.102V43.295H143.268Z" fill="white"/>
<path d="M150.557 40.4755H151.856V46.8927H150.557V42.1496L149.18 43.3733L147.823 42.1545V46.8878H146.364V40.4608H147.823L149.2 42.0223L150.557 40.4706V40.4755Z" fill="white"/>
<path d="M153.897 46.8878H152.495L154.756 40.4608H155.981L158.227 46.8878H157.07L156.679 45.5564H154.331L153.897 46.8878ZM154.683 44.8026H156.308L155.517 42.081H155.498L154.683 44.8026Z" fill="white"/>
<path d="M163.758 44.925C163.758 46.1389 162.923 46.8878 161.81 46.8878H160.634C159.877 46.8878 158.788 46.4668 158.788 45.0816V42.4726C158.788 41.3713 159.579 40.4706 160.868 40.4706H161.825C162.782 40.4706 163.416 41.0874 163.695 41.9048L162.503 42.2817C162.357 41.9538 162.049 41.7286 161.713 41.7286H161.054C160.453 41.7286 160.175 42.2132 160.175 42.6733V44.7781C160.175 45.3606 160.307 45.7718 160.956 45.7718H161.693C162.225 45.7718 162.469 45.3851 162.503 44.9152H163.758V44.925Z" fill="white"/>
<path d="M168.889 41.4888H166.009V43.06H168.386V43.9313H166.009V45.9235H168.889V46.8829H164.573V40.4755H168.889V41.4888Z" fill="white"/>
<path d="M171.14 40.5098V44.7292C171.14 45.0473 171.281 45.5026 171.872 45.5026H172.741C173.322 45.5026 173.517 45.062 173.517 44.6753V40.5049H174.919V44.9837C174.919 46.3249 174.006 46.8878 172.941 46.8878H171.784C170.525 46.8878 169.661 46.0263 169.729 44.8075V40.5049H171.14V40.5098Z" fill="white"/>
<path d="M175.519 40.4657H181.016V41.8216H179V46.8878H177.653V41.8216H175.519V40.4657Z" fill="white"/>
<path d="M182.93 46.8878H181.661V40.4706H182.93V46.8878Z" fill="white"/>
<path d="M188.803 44.925C188.803 46.1389 187.968 46.8878 186.855 46.8878H185.679C184.922 46.8878 183.833 46.4668 183.833 45.0816V42.4726C183.833 41.3713 184.624 40.4706 185.913 40.4706H186.87C187.827 40.4706 188.461 41.0874 188.74 41.9048L187.548 42.2817C187.402 41.9538 187.094 41.7286 186.757 41.7286H186.098C185.498 41.7286 185.22 42.2132 185.22 42.6733V44.7781C185.22 45.3606 185.351 45.7718 186.001 45.7718H186.738C187.27 45.7718 187.514 45.3851 187.548 44.9152H188.803V44.925Z" fill="white"/>
<path d="M190.453 46.8878H189.052L191.312 40.4608H192.538L194.784 46.8878H193.626L193.236 45.5564H190.888L190.453 46.8878ZM191.239 44.8026H192.865L192.074 42.081H192.054L191.239 44.8026Z" fill="white"/>
<path d="M196.839 45.9578H199.729V46.9025H195.433V40.4755H196.844V45.9578H196.839Z" fill="white"/>
</g>
</g>
<defs>
<clipPath id="clip0_35_87">
<rect width="203" height="54" fill="white"/>
</clipPath>
</defs>
</svg>
