<svg width="30" height="30" viewBox="0 0 30 30" fill="none" xmlns="http://www.w3.org/2000/svg">
<path d="M13.8158 22.5H16.1842V16.1842H22.5V13.8158H16.1842V7.50002H13.8158V13.8158H7.50002V16.1842H13.8158V22.5ZM15.0026 30C12.928 30 10.978 29.6063 9.15247 28.8189C7.32697 28.0316 5.73904 26.963 4.3887 25.6133C3.03832 24.2635 1.96928 22.6763 1.18157 20.8516C0.393857 19.0269 0 17.0773 0 15.0026C0 12.928 0.393685 10.978 1.18106 9.15247C1.96843 7.32697 3.03698 5.73904 4.38672 4.3887C5.73649 3.03833 7.32372 1.96928 9.14841 1.18157C10.9731 0.393858 12.9227 0 14.9974 0C17.072 0 19.0221 0.393687 20.8475 1.18106C22.673 1.96843 24.261 3.03698 25.6113 4.38672C26.9617 5.73649 28.0307 7.32372 28.8184 9.14841C29.6061 10.9731 30 12.9227 30 14.9974C30 17.072 29.6063 19.022 28.8189 20.8475C28.0316 22.673 26.963 24.261 25.6133 25.6113C24.2635 26.9617 22.6763 28.0307 20.8516 28.8184C19.0269 29.6061 17.0773 30 15.0026 30ZM15 27.6316C18.5263 27.6316 21.5132 26.4079 23.9606 23.9606C26.4079 21.5132 27.6316 18.5263 27.6316 15C27.6316 11.4737 26.4079 8.48683 23.9606 6.03945C21.5132 3.59208 18.5263 2.36839 15 2.36839C11.4737 2.36839 8.48682 3.59208 6.03945 6.03945C3.59207 8.48683 2.36839 11.4737 2.36839 15C2.36839 18.5263 3.59207 21.5132 6.03945 23.9606C8.48682 26.4079 11.4737 27.6316 15 27.6316Z" fill="#3D3D3D"/>
</svg>
