<svg width="150" height="150" viewBox="0 0 150 150" fill="none" xmlns="http://www.w3.org/2000/svg">
<path d="M17.0674 125.962V19.7117H73.3174V44.7117H132.933V96.6346H126.683V50.9617H73.3174V69.7117H88.2211V75.9617H73.3174V94.7117H88.2211V100.962H73.3174V119.712H103.125V125.962H17.0674ZM23.3174 119.712H42.0674V100.962H23.3174V119.712ZM23.3174 94.7117H42.0674V75.9617H23.3174V94.7117ZM23.3174 69.7117H42.0674V50.9617H23.3174V69.7117ZM23.3174 44.7117H42.0674V25.9617H23.3174V44.7117ZM48.3174 119.712H67.0674V100.962H48.3174V119.712ZM48.3174 94.7117H67.0674V75.9617H48.3174V94.7117ZM48.3174 69.7117H67.0674V50.9617H48.3174V69.7117ZM48.3174 44.7117H67.0674V25.9617H48.3174V44.7117ZM126.683 138.462V125.962H114.183V119.712H126.683V107.212H132.933V119.712H145.433V125.962H132.933V138.462H126.683ZM103.125 75.9617V69.7117H109.375V75.9617H103.125ZM103.125 100.962V94.7117H109.375V100.962H103.125Z" fill="#2D2D2D"/>
</svg>
