<svg width="150" height="150" viewBox="0 0 150 150" fill="none" xmlns="http://www.w3.org/2000/svg">
<path d="M75 106.935C86.3542 97.9607 94.9219 89.359 100.703 81.1298C106.484 72.9007 109.375 64.9199 109.375 57.1875C109.375 50.7892 108.207 45.3334 105.871 40.8202C103.536 36.307 100.625 32.6542 97.1394 29.8617C93.6539 27.0693 89.9182 25.0401 85.9323 23.7741C81.9466 22.508 78.3025 21.875 75 21.875C71.6975 21.875 68.0534 22.508 64.0677 23.7741C60.0818 25.0401 56.3461 27.0693 52.8606 29.8617C49.375 32.6542 46.4643 36.307 44.1286 40.8202C41.7929 45.3334 40.625 50.7892 40.625 57.1875C40.625 64.9199 43.5156 72.9007 49.2969 81.1298C55.0781 89.359 63.6458 97.9607 75 106.935ZM75 114.904C61.3542 104.631 51.1719 94.7115 44.4531 85.1442C37.7344 75.5769 34.375 66.2575 34.375 57.1858C34.375 50.3337 35.603 44.3261 38.0589 39.163C40.5148 33.9998 43.6792 29.6635 47.5519 26.1539C51.4247 22.6442 55.7816 20.012 60.6225 18.2572C65.4633 16.5024 70.2558 15.625 75 15.625C79.7442 15.625 84.5367 16.5024 89.3775 18.2572C94.2185 20.012 98.5754 22.6442 102.448 26.1539C106.321 29.6635 109.485 33.9998 111.941 39.163C114.397 44.3261 115.625 50.3337 115.625 57.1858C115.625 66.2575 112.266 75.5769 105.547 85.1442C98.8281 94.7115 88.6458 104.631 75 114.904ZM75 65.625C77.6362 65.625 79.8578 64.7216 81.6647 62.9147C83.4716 61.1078 84.375 58.8862 84.375 56.25C84.375 53.6138 83.4716 51.3922 81.6647 49.5853C79.8578 47.7784 77.6362 46.875 75 46.875C72.3638 46.875 70.1422 47.7784 68.3353 49.5853C66.5284 51.3922 65.625 53.6138 65.625 56.25C65.625 58.8862 66.5284 61.1078 68.3353 62.9147C70.1422 64.7216 72.3638 65.625 75 65.625ZM34.375 134.375V128.125H115.625V134.375H34.375Z" fill="#2D2D2D"/>
</svg>
