<svg width="160" height="160" viewBox="0 0 160 160" fill="none" xmlns="http://www.w3.org/2000/svg">
<path d="M19.6152 124.103V113.128C19.6152 109.718 20.4528 106.979 22.1281 104.91C23.8033 102.842 25.923 101.145 28.4871 99.8204C34.1537 96.9315 39.7307 94.7007 45.2179 93.1281C50.705 91.5554 57.7263 90.7691 66.2819 90.7691C69.6152 90.7691 72.5661 90.8716 75.1346 91.0767C77.7029 91.2819 79.9742 91.5897 81.9486 91.9999L75.9229 98.0256C74.7007 97.8033 73.2499 97.6495 71.5704 97.5641C69.891 97.4785 68.1281 97.4357 66.2819 97.4357C58.393 97.4357 51.6516 98.252 46.0576 99.8846C40.4636 101.517 35.6666 103.444 31.6666 105.667C29.6409 106.735 28.2371 107.855 27.4551 109.026C26.673 110.196 26.2819 111.564 26.2819 113.128V117.436H65.3846L72.0512 124.103H19.6152ZM102 131.385L83.6152 113L88.3332 108.282L102 121.949L135.667 88.2819L140.385 92.9999L102 131.385ZM66.2819 75.8974C60.7819 75.8974 56.0736 73.9391 52.1569 70.0224C48.2402 66.1057 46.2819 61.3974 46.2819 55.8974C46.2819 50.3973 48.2402 45.6889 52.1569 41.7722C56.0736 37.8556 60.7819 35.8972 66.2819 35.8972C71.7819 35.8972 76.4903 37.8556 80.4071 41.7722C84.3237 45.6889 86.2821 50.3973 86.2821 55.8974C86.2821 61.3974 84.3237 66.1057 80.4071 70.0224C76.4903 73.9391 71.7819 75.8974 66.2819 75.8974ZM66.2819 69.2307C69.9486 69.2307 73.0875 67.9252 75.6986 65.3141C78.3097 62.7029 79.6152 59.5641 79.6152 55.8974C79.6152 52.2307 78.3097 49.0918 75.6986 46.4807C73.0875 43.8696 69.9486 42.5641 66.2819 42.5641C62.6152 42.5641 59.4763 43.8696 56.8652 46.4807C54.2541 49.0918 52.9486 52.2307 52.9486 55.8974C52.9486 59.5641 54.2541 62.7029 56.8652 65.3141C59.4763 67.9252 62.6152 69.2307 66.2819 69.2307Z" fill="#2D2D2D"/>
</svg>
